<svg version="1.1" id="Layer_1" xmlns="http://www.w3.org/2000/svg" xmlns:xlink="http://www.w3.org/1999/xlink" x="0px" y="0px"
	 width="100%" viewBox="0 0 142 125" enable-background="new 0 0 142 125" xml:space="preserve">
<path fill="#E6E6E6" opacity="1.000000" stroke="none" 
	d="
M98.000000,126.000000 
	C65.363472,126.000000 33.226948,126.000000 1.045210,126.000000 
	C1.045210,84.402557 1.045210,42.805050 1.045210,1.103771 
	C48.219601,1.103771 95.439507,1.103771 142.829712,1.103771 
	C142.829712,42.666092 142.829712,84.332993 142.829712,126.000000 
	C128.138794,126.000000 113.319397,126.000000 98.000000,126.000000 
M53.055222,37.017590 
	C46.731762,37.058174 40.408302,37.098759 33.395218,37.059032 
	C32.985699,37.438820 32.576180,37.818607 32.166660,38.198399 
	C32.529144,38.456085 32.891632,38.713772 33.312492,39.910732 
	C33.297855,56.282879 33.283218,72.655029 32.587795,89.150818 
	C33.086910,89.720795 33.586029,90.290771 35.003834,90.985115 
	C41.327732,90.935600 47.651627,90.886086 54.515419,90.893669 
	C54.596851,90.587692 54.678284,90.281715 54.873421,89.047836 
	C54.835518,72.041199 54.797615,55.034557 54.893505,37.501854 
	C54.588718,37.389206 54.283928,37.276558 53.055222,37.017590 
M13.000098,18.662708 
	C13.000098,23.409048 13.000098,28.155390 13.000098,32.645546 
	C34.106777,32.645546 54.484165,32.645546 74.630035,32.645546 
	C74.630035,26.554636 74.630035,20.822678 74.630035,15.000372 
	C54.961754,15.000372 35.663242,15.011918 16.364796,14.982678 
	C14.414793,14.979724 12.554626,14.842145 13.000098,18.662708 
M112.000000,81.511574 
	C112.000000,78.761635 112.000000,76.011703 112.000000,73.314713 
	C104.277534,73.314713 97.363327,73.314713 90.406235,73.314713 
	C90.406235,79.336754 90.406235,85.036919 90.406235,90.680908 
	C97.731339,90.680908 104.645729,90.680908 112.000000,90.680908 
	C112.000000,87.745270 112.000000,85.115494 112.000000,81.511574 
z"/>
<path fill="#1F1F1F" opacity="1.000000" stroke="none" 
	d="
M33.268581,89.027176 
	C33.283218,72.655029 33.297855,56.282879 33.522079,39.314323 
	C33.849392,38.191727 33.967117,37.665535 34.084843,37.139347 
	C40.408302,37.098759 46.731762,37.058174 53.600349,37.274490 
	C54.282364,37.780842 54.487114,37.946346 54.759716,38.027916 
	C54.797615,55.034557 54.835518,72.041199 54.636959,89.603409 
	C54.199726,90.347763 54.058071,90.573624 53.975525,90.836571 
	C47.651627,90.886086 41.327732,90.935600 34.507271,90.655289 
	C33.763332,89.892708 33.515957,89.459938 33.268581,89.027176 
z"/>
<path fill="#1F1F1F" opacity="1.000000" stroke="none" 
	d="
M13.000537,18.179665 
	C12.554626,14.842145 14.414793,14.979724 16.364796,14.982678 
	C35.663242,15.011918 54.961754,15.000372 74.630035,15.000372 
	C74.630035,20.822678 74.630035,26.554636 74.630035,32.645546 
	C54.484165,32.645546 34.106777,32.645546 13.000098,32.645546 
	C13.000098,28.155390 13.000098,23.409048 13.000537,18.179665 
z"/>
<path fill="#E38445" opacity="1.000000" stroke="none" 
	d="
M112.000000,81.998642 
	C112.000000,85.115494 112.000000,87.745270 112.000000,90.680908 
	C104.645729,90.680908 97.731339,90.680908 90.406235,90.680908 
	C90.406235,85.036919 90.406235,79.336754 90.406235,73.314713 
	C97.363327,73.314713 104.277534,73.314713 112.000000,73.314713 
	C112.000000,76.011703 112.000000,78.761635 112.000000,81.998642 
z"/>
<path fill="#6F6F6F" opacity="1.000000" stroke="none" 
	d="
M33.740028,37.099190 
	C33.967117,37.665535 33.849392,38.191727 33.492897,38.844688 
	C32.891632,38.713772 32.529144,38.456085 32.166660,38.198399 
	C32.576180,37.818607 32.985699,37.438820 33.740028,37.099190 
z"/>
<path fill="#6F6F6F" opacity="1.000000" stroke="none" 
	d="
M32.928188,89.088997 
	C33.515957,89.459938 33.763332,89.892708 34.047928,90.593109 
	C33.586029,90.290771 33.086910,89.720795 32.928188,89.088997 
z"/>
<path fill="#434343" opacity="1.000000" stroke="none" 
	d="
M54.826611,37.764885 
	C54.487114,37.946346 54.282364,37.780842 54.062309,37.347652 
	C54.283928,37.276558 54.588718,37.389206 54.826611,37.764885 
z"/>
<path fill="#434343" opacity="1.000000" stroke="none" 
	d="
M54.245472,90.865120 
	C54.058071,90.573624 54.199726,90.347763 54.580109,90.067352 
	C54.678284,90.281715 54.596851,90.587692 54.245472,90.865120 
z"/>
</svg>